<svg width="130" height="60" viewBox="0 0 130 60" fill="none" xmlns="http://www.w3.org/2000/svg">
<path d="M4.26074 46.5892C3.89845 46.4276 3.59655 46.199 3.35501 45.9041C3.12211 45.6092 2.93235 45.2619 2.78571 44.8624C2.87196 44.6054 3.00999 44.3912 3.19975 44.2202C3.38954 44.0393 3.60087 43.887 3.83377 43.7634C4.07528 43.6397 4.32975 43.5398 4.59715 43.4638C4.86457 43.3875 5.12334 43.3208 5.37349 43.2638C5.42524 43.2828 5.45113 43.2828 5.45113 43.2638C5.45113 43.2448 5.4727 43.2545 5.51581 43.2925C5.82635 43.1878 6.18433 43.0879 6.58976 42.9926C6.99517 42.888 7.42646 42.85 7.88365 42.8786C7.94404 42.8403 8.01734 42.8213 8.10362 42.8213C8.18987 42.812 8.28045 42.8073 8.37534 42.8073C8.4702 42.8073 8.56078 42.8073 8.64703 42.8073C8.73331 42.7976 8.80663 42.7786 8.867 42.75C8.91875 42.8166 8.99639 42.8596 9.0999 42.8786C9.20343 42.888 9.31125 42.9356 9.42337 43.0212C9.45787 43.0309 9.45787 43.0166 9.42337 42.9783C9.38887 42.9309 9.39319 42.8976 9.43633 42.8786C9.54845 42.8786 9.64766 42.907 9.73391 42.9642C9.82016 43.0212 9.89781 43.0879 9.96681 43.1639C10.0445 43.2305 10.1135 43.2925 10.1738 43.3495C10.2429 43.4065 10.3162 43.4351 10.3938 43.4351C10.4714 43.5398 10.562 43.6397 10.6655 43.7347C10.7777 43.8204 10.8812 43.911 10.976 44.006C11.0796 44.1012 11.1615 44.2059 11.2219 44.3199C11.2909 44.4342 11.3254 44.5625 11.3254 44.7054C11.3168 44.7624 11.334 44.7957 11.3772 44.8051C11.4203 44.8147 11.4505 44.8434 11.4677 44.8907C11.4763 45.2429 11.4246 45.5475 11.3125 45.8041C11.2089 46.061 11.0753 46.299 10.9114 46.5179C10.7475 46.7272 10.5706 46.9271 10.3809 47.1174C10.1997 47.3076 10.0315 47.5122 9.87624 47.7309C9.97974 47.8738 10.0962 48.0068 10.2256 48.1304C10.3636 48.2447 10.5016 48.359 10.6396 48.473C10.7777 48.5873 10.907 48.7109 11.0278 48.8442C11.1572 48.9678 11.265 49.1105 11.3513 49.2724C11.3772 49.3294 11.4332 49.3674 11.5195 49.3864C11.5454 49.5007 11.5799 49.6196 11.623 49.7433C11.6747 49.8575 11.7222 49.9715 11.7653 50.0858C11.8085 50.1905 11.8343 50.2855 11.843 50.3711C11.8516 50.4567 11.83 50.5283 11.7783 50.5853C11.8386 50.6233 11.8731 50.6853 11.8818 50.7709C11.8904 50.8469 11.8904 50.9089 11.8818 50.9563C11.692 51.2132 11.5626 51.3941 11.4936 51.4987C11.4246 51.6034 11.3728 51.6794 11.3383 51.727C11.3038 51.7747 11.2693 51.8173 11.2348 51.8556C11.2003 51.8936 11.1227 51.9696 11.0019 52.0839C10.5448 52.3885 10.066 52.6644 9.5657 52.9117C9.07403 53.1496 8.56078 53.3112 8.02598 53.3969C7.98284 53.4635 7.91815 53.5158 7.8319 53.5538C7.75426 53.6015 7.66368 53.6395 7.56018 53.6681C7.45667 53.6964 7.34453 53.7204 7.22377 53.7394C7.11163 53.7584 7.00813 53.7774 6.91323 53.7964C6.87009 53.7774 6.84423 53.7441 6.83559 53.6964C6.83559 53.6585 6.81402 53.6301 6.77091 53.6108C6.76227 53.7251 6.71483 53.7821 6.62858 53.7821C6.55094 53.7917 6.45173 53.7727 6.33097 53.7251C6.21022 53.6774 6.08514 53.6108 5.95575 53.5252C5.82635 53.4398 5.71421 53.3589 5.61934 53.2826C5.5762 53.3682 5.52013 53.4588 5.45113 53.5538C5.39074 53.6491 5.32605 53.7157 5.25705 53.7537C5.13629 53.7347 5.04572 53.7204 4.98533 53.7108C4.93358 53.7014 4.88182 53.7251 4.83007 53.7821C4.76104 53.7441 4.70929 53.7014 4.67479 53.6538C4.64029 53.6158 4.60578 53.5728 4.57128 53.5252C4.53678 53.4872 4.49796 53.4538 4.45482 53.4255C4.41171 53.3872 4.347 53.3542 4.26074 53.3255C4.27799 53.2779 4.26506 53.2066 4.22192 53.1113C4.17881 53.0066 4.11842 52.945 4.04077 52.926C4.08391 52.8497 4.06666 52.7547 3.98902 52.6404C3.91141 52.5168 3.85102 52.3788 3.80788 52.2265C3.81651 52.1599 3.82083 52.0933 3.82083 52.0269C3.82945 51.9506 3.83808 51.884 3.8467 51.827C3.86395 51.7603 3.88552 51.7033 3.91141 51.6557C3.93727 51.6081 3.98041 51.5747 4.04077 51.5557C4.03216 51.4321 3.99766 51.3131 3.93727 51.1991C4.01491 51.1325 4.06666 51.0515 4.09253 50.9563C4.11842 50.8516 4.13999 50.747 4.15724 50.6423C4.1831 50.5377 4.21331 50.4377 4.24781 50.3427C4.28231 50.2381 4.33838 50.1525 4.41603 50.0858C4.39875 50.0572 4.3815 50.0335 4.36425 50.0145C4.347 49.9955 4.33838 49.9622 4.33838 49.9145C4.46778 49.6766 4.55835 49.477 4.6101 49.3151C4.66186 49.1438 4.70068 48.9821 4.72654 48.8299C4.76104 48.6682 4.79554 48.497 4.83007 48.316C4.86457 48.1354 4.93358 47.9068 5.03708 47.6309C5.02847 47.4599 5.04572 47.3076 5.08883 47.1744C5.13197 47.0411 5.17509 46.9128 5.21823 46.7891C5.26998 46.6558 5.3088 46.5179 5.33467 46.3752C5.36055 46.2323 5.35623 46.066 5.32173 45.8757C5.17509 45.8947 5.06726 45.9517 4.99826 46.047C4.9379 46.142 4.89907 46.2706 4.88182 46.4322C4.80418 46.5082 4.70497 46.5465 4.58421 46.5465C4.46346 46.5369 4.35564 46.5512 4.26074 46.5892ZM9.95388 49.3437C9.62609 49.1438 9.32418 49.0248 9.04814 48.9868C8.78074 48.9488 8.52196 48.9535 8.27181 49.0011C8.0303 49.0391 7.7974 49.0961 7.57311 49.1724C7.34885 49.2484 7.12456 49.3057 6.9003 49.3437C6.78816 49.6673 6.67169 50.0239 6.55094 50.4141C6.43018 50.8043 6.31372 51.1848 6.20158 51.5557C6.51212 51.5081 6.79677 51.4368 7.05556 51.3418C7.31435 51.2465 7.5645 51.1419 7.80601 51.0279C8.04754 50.9039 8.28476 50.785 8.51766 50.671C8.75056 50.5473 8.99207 50.4331 9.24222 50.3284C9.26811 50.2141 9.32418 50.1238 9.41044 50.0572C9.49669 49.9905 9.58297 49.9289 9.66923 49.8716C9.75548 49.8052 9.8288 49.7336 9.88917 49.6576C9.94956 49.5816 9.97113 49.477 9.95388 49.3437ZM9.04814 44.8767C8.51334 44.8577 7.98715 44.91 7.4696 45.0336C6.95205 45.1573 6.51644 45.3379 6.16276 45.5758C6.33529 45.7378 6.51212 45.8804 6.69326 46.004C6.88302 46.1277 7.02538 46.2943 7.12024 46.5036C7.53429 46.3229 7.89658 46.0943 8.20712 45.8184C8.51766 45.5332 8.798 45.2192 9.04814 44.8767ZM18.3487 53.3255C18.1071 53.4112 17.844 53.4968 17.5594 53.5825C17.2747 53.6681 16.9901 53.7108 16.7054 53.7108C16.2741 53.7108 15.9334 53.5918 15.6832 53.3542C15.6401 53.2492 15.6013 53.1779 15.5668 53.1399C15.5409 53.1019 15.515 53.0639 15.4892 53.0259C15.4719 52.9783 15.459 52.9163 15.4503 52.8403C15.3468 52.7071 15.2649 52.5548 15.2045 52.3835C15.1441 52.2029 15.101 52.0219 15.0751 51.8413C15.0579 51.651 15.0535 51.4607 15.0622 51.2705C15.0794 51.0802 15.1096 50.8993 15.1527 50.728C15.17 50.69 15.1786 50.652 15.1786 50.614C15.1872 50.5757 15.1959 50.533 15.2045 50.4854C15.239 50.3331 15.2735 50.1858 15.308 50.0429C15.3511 49.9002 15.4072 49.7766 15.4762 49.6719C15.4417 49.5863 15.4417 49.491 15.4762 49.3864C15.5107 49.2817 15.5495 49.1867 15.5927 49.1011C15.7134 48.7395 15.8126 48.435 15.8902 48.1877C15.9765 47.9308 16.0628 47.6785 16.149 47.4313C16.2957 47.0031 16.4337 46.5795 16.5631 46.161C16.6925 45.7424 16.8089 45.2906 16.9124 44.8051C16.9815 44.7577 17.0332 44.7244 17.0677 44.7054C17.1195 44.6864 17.1626 44.6721 17.1971 44.6624C17.3524 44.7481 17.5335 44.8337 17.7405 44.9194C17.9475 44.9956 18.1201 45.0336 18.2581 45.0336C18.3271 45.0813 18.3702 45.1193 18.3875 45.1476C18.4047 45.1666 18.422 45.1859 18.4392 45.2049C18.5341 45.3286 18.6161 45.4569 18.6851 45.5902C18.7541 45.7138 18.7756 45.8804 18.7498 46.0897C18.698 46.1753 18.6592 46.218 18.6333 46.218C18.5902 46.4086 18.5427 46.5702 18.491 46.7035C18.4478 46.8365 18.4004 46.9697 18.3487 47.103C18.2883 47.2457 18.2322 47.3883 18.1804 47.5312C18.1287 47.6739 18.0856 47.8498 18.0511 48.0591C18.0166 48.1067 17.9907 48.1497 17.9734 48.1877C17.9648 48.2257 17.9519 48.2684 17.9346 48.316C17.9174 48.3637 17.8958 48.416 17.8699 48.473C17.8527 48.5206 17.8225 48.5636 17.7793 48.6016C17.7535 48.8489 17.7103 49.0488 17.65 49.2011C17.5982 49.3531 17.5421 49.5053 17.4817 49.6576C17.3782 49.9335 17.2834 50.2095 17.1971 50.4854C17.1195 50.7613 17.072 51.0752 17.0548 51.4274C17.0979 51.4084 17.1367 51.3988 17.1712 51.3988C17.2143 51.3988 17.2532 51.3988 17.2877 51.3988C17.3653 51.3988 17.4559 51.4131 17.5594 51.4417C17.8182 51.2895 18.0985 51.1991 18.4004 51.1705C18.711 51.1419 19.0173 51.1229 19.3191 51.1135C19.4399 51.1135 19.5605 51.1135 19.6813 51.1135C19.8022 51.1135 19.9143 51.1039 20.0179 51.0849C20.0955 51.1325 20.143 51.1609 20.1602 51.1705C20.1859 51.1705 20.2206 51.1705 20.2635 51.1705C20.3239 51.1705 20.3759 51.1752 20.4188 51.1848C20.5224 51.2895 20.6215 51.3655 20.7164 51.4131C20.8113 51.4607 20.9106 51.5034 21.014 51.5414C21.1088 51.5797 21.1995 51.6224 21.2859 51.67C21.3807 51.708 21.4713 51.765 21.5575 51.8413L21.6481 52.4548C21.7085 52.5405 21.7342 52.5977 21.7257 52.6261C21.7257 52.7024 21.7085 52.7594 21.6741 52.7974L21.6998 52.9543C21.5705 52.983 21.4798 53.0163 21.4282 53.0543C21.385 53.0923 21.3418 53.1353 21.2988 53.1829C21.2297 53.1922 21.178 53.1969 21.1436 53.1969C21.1176 53.1969 21.0916 53.1969 21.0659 53.1969C20.9451 53.1969 20.7985 53.2209 20.626 53.2685C20.3931 53.1829 20.1514 53.1399 19.9013 53.1399C19.8064 53.1399 19.7073 53.1446 19.6037 53.1543C19.5001 53.1639 19.3967 53.1733 19.2931 53.1829C19.1898 53.2019 19.0819 53.2162 18.9699 53.2256C18.8662 53.2352 18.7584 53.2399 18.6462 53.2399L18.3487 53.3255ZM31.4919 52.2835C31.4402 52.4455 31.3626 52.6118 31.259 52.7831C31.1641 52.945 31.0478 53.0923 30.9097 53.2256C30.7804 53.3492 30.6336 53.4539 30.4699 53.5395C30.3058 53.6251 30.1333 53.6728 29.9523 53.6824C29.8402 53.6538 29.7626 53.6205 29.7194 53.5825C29.685 53.5538 29.646 53.5252 29.6028 53.4968C29.5771 53.4778 29.5511 53.4635 29.5254 53.4538C29.5079 53.4349 29.4907 53.4205 29.4735 53.4112L29.3182 53.3399L29.3702 53.1543C29.3874 53.0783 29.3829 53.021 29.3572 52.983C29.3312 52.9353 29.2795 52.8737 29.2019 52.7974C29.1759 52.769 29.1499 52.7404 29.1242 52.7117C29.0983 52.6834 29.0768 52.6547 29.0596 52.6261L28.8396 52.3551L29.1889 52.2552C29.4046 52.1885 29.5469 52.1029 29.6158 51.9983C29.6934 51.8936 29.7236 51.7177 29.7064 51.4701C29.5339 51.4321 29.3874 51.4274 29.2665 51.4558C29.1544 51.4844 29.0379 51.5177 28.9173 51.5557C28.762 51.6034 28.6022 51.6461 28.4384 51.6843C28.2832 51.7127 28.1107 51.727 27.9209 51.727C27.8518 51.727 27.7871 51.727 27.7267 51.727C27.6665 51.7177 27.6016 51.708 27.5327 51.6984L27.4034 51.67C27.3862 51.5654 27.3687 51.5081 27.3515 51.4987C27.3342 51.4797 27.317 51.4607 27.2998 51.4417C27.2566 51.3941 27.2092 51.3321 27.1575 51.2561C27.1143 51.1705 27.1058 51.0659 27.1315 50.9422C27.0886 50.8566 27.0626 50.7709 27.0539 50.6853C27.0022 50.7993 26.9635 50.9183 26.9375 51.0419L26.8859 51.1848L26.7563 51.2132C26.7391 51.2228 26.7261 51.2465 26.7176 51.2845C26.7089 51.3131 26.7046 51.3371 26.7046 51.3561L26.64 51.5987C26.6227 51.6177 26.6055 51.6367 26.5883 51.6557C26.5708 51.6653 26.5536 51.6794 26.5364 51.6984C26.5191 51.784 26.4977 51.8697 26.4717 51.9553C26.4457 52.0409 26.42 52.1219 26.3941 52.1979C26.3509 52.3218 26.3122 52.4455 26.2777 52.5691C26.2518 52.6834 26.243 52.7974 26.2518 52.9117L26.2001 53.0686C26.1569 53.1256 26.1095 53.1733 26.0578 53.2113C26.0058 53.2399 25.9542 53.2685 25.9025 53.2969C25.8853 53.3159 25.8593 53.3349 25.8249 53.3542C25.7989 53.3635 25.7774 53.3732 25.7602 53.3825L25.7212 53.5395L25.566 53.5681C25.4711 53.5871 25.4022 53.6015 25.359 53.6108C25.3246 53.6205 25.2814 53.6251 25.2297 53.6251L25.1001 53.6108C25.0052 53.5252 24.9321 53.4588 24.8802 53.4112C24.8285 53.3542 24.7681 53.3019 24.6992 53.2542C24.6215 53.1399 24.5783 53.0543 24.5696 52.9973C24.5611 52.9403 24.5524 52.8877 24.5439 52.8403C24.5267 52.7831 24.5179 52.7357 24.5179 52.6974C24.5092 52.6594 24.4965 52.6311 24.4792 52.6118L24.311 52.4408L24.4533 52.3122L24.4663 52.0696C24.6388 51.5844 24.8198 51.1182 25.0095 50.671C25.208 50.2238 25.4107 49.7669 25.6176 49.3007C25.6868 49.1487 25.7515 48.9965 25.8119 48.8442C25.8808 48.6919 25.9499 48.5396 26.0188 48.3873C26.0104 48.359 26.0058 48.3257 26.0058 48.2877C26.0058 48.2494 26.0146 48.2067 26.0318 48.1591C26.1267 47.9974 26.2043 47.8545 26.2647 47.7309C26.3252 47.5979 26.3856 47.4646 26.4457 47.3313C26.5149 47.1697 26.5838 47.0127 26.653 46.8604C26.7306 46.7082 26.8255 46.5512 26.9375 46.3893L27.1445 46.2896C27.1705 46.28 27.2007 46.2706 27.2351 46.261C27.2696 46.242 27.3085 46.2323 27.3515 46.2323L27.5457 46.261C27.7871 46.1373 27.9986 45.966 28.1796 45.7471C28.3608 45.5188 28.5463 45.2476 28.736 44.9337L28.8653 44.7338L29.0336 44.848C29.0768 44.8767 29.1372 44.905 29.2149 44.9337C29.2925 44.9527 29.3744 44.9764 29.4605 45.005C29.6158 45.043 29.7626 45.086 29.9007 45.1336C30.0385 45.181 30.1508 45.2523 30.2369 45.3476C30.2886 45.4998 30.3188 45.6138 30.3276 45.6901C30.336 45.7661 30.349 45.8424 30.3662 45.9184C30.3922 46.08 30.4137 46.242 30.4309 46.4036C30.4569 46.5655 30.4741 46.7462 30.4828 46.9461C30.526 47.1077 30.5605 47.2693 30.5862 47.4313C30.6209 47.5836 30.6511 47.7405 30.6768 47.9021C30.72 48.1304 30.7632 48.354 30.8061 48.5729C30.8493 48.7822 30.9055 48.9821 30.9744 49.1724C31.0436 49.1724 31.0865 49.1771 31.104 49.1867C31.1469 49.1677 31.1901 49.1534 31.2333 49.1438C31.285 49.1344 31.3411 49.1248 31.4016 49.1154L31.5439 49.1011L31.5955 49.2437C31.6043 49.2914 31.6472 49.339 31.7248 49.3864C31.8369 49.396 31.9191 49.4247 31.9708 49.472C32.0224 49.5103 32.0699 49.553 32.1131 49.6006C32.1475 49.6386 32.1822 49.6673 32.2167 49.6863L32.4106 49.7719L32.3073 49.9859C32.2209 50.1571 32.0958 50.3237 31.9321 50.4854C31.7768 50.6377 31.5998 50.766 31.4016 50.8706C31.41 50.9279 31.4143 50.9849 31.4143 51.0419C31.423 51.0895 31.436 51.1419 31.4532 51.1991C31.4792 51.3608 31.5007 51.5274 31.5179 51.6984C31.5351 51.8697 31.5351 52.0459 31.5179 52.2265L31.4919 52.2835ZM27.7527 49.8146C28.0116 49.7956 28.2445 49.7766 28.4514 49.7576C28.6671 49.7289 28.9043 49.6863 29.1629 49.629C29.1025 49.3437 29.0379 49.0488 28.969 48.7442C28.8998 48.4303 28.8267 48.1211 28.749 47.8165L28.6714 47.9594C28.4989 48.1591 28.3306 48.3827 28.1668 48.6299C28.0115 48.8775 27.8777 49.1105 27.7656 49.3294C27.714 49.415 27.662 49.5007 27.6104 49.5863C27.5587 49.6719 27.5113 49.7576 27.4681 49.8432C27.5197 49.8336 27.5672 49.8289 27.6104 49.8289C27.662 49.8289 27.7095 49.8242 27.7527 49.8146ZM41.3747 49.629C41.3662 49.6766 41.3575 49.7196 41.349 49.7576C41.3402 49.7862 41.3318 49.8146 41.323 49.8432C41.3143 49.8716 41.31 49.9099 41.31 49.9572C41.31 49.9955 41.31 50.0478 41.31 50.1145C41.0514 50.6187 40.7236 51.0419 40.3267 51.3845C39.9385 51.727 39.5073 52.0316 39.0327 52.2979C38.5671 52.5548 38.0796 52.7927 37.5708 53.0116C37.0617 53.2209 36.5659 53.4492 36.0829 53.6964C35.8756 53.6395 35.7161 53.5445 35.604 53.4112C35.5004 53.2779 35.4185 53.1256 35.3581 52.9543C35.3064 52.7737 35.2675 52.5787 35.2418 52.3692C35.2246 52.1505 35.2073 51.9269 35.1898 51.6984C35.2158 51.5937 35.2503 51.5081 35.2935 51.4417C35.3451 51.3655 35.3711 51.2608 35.3711 51.1275C35.44 50.8803 35.5092 50.6377 35.5781 50.3997C35.6472 50.1618 35.6901 49.9192 35.7076 49.6719C35.7333 49.5957 35.7808 49.5433 35.8499 49.515C35.8929 49.0581 35.8929 48.5969 35.8499 48.1304C35.8152 47.6549 35.7463 47.2123 35.6427 46.8031C35.6515 46.7082 35.6602 46.6415 35.6687 46.6035C35.6859 46.5559 35.6859 46.5226 35.6687 46.5036C35.6602 46.4276 35.6817 46.3893 35.7333 46.3893C35.7938 46.3893 35.8542 46.3893 35.9146 46.3893C35.9146 46.2466 35.8886 46.104 35.837 45.9614C35.7938 45.8184 35.7506 45.6568 35.7076 45.4759C35.7678 45.3332 35.8067 45.1953 35.824 45.062C35.8412 44.9194 35.8801 44.7957 35.9403 44.6911C36.4061 44.8527 36.8505 45.048 37.2732 45.2762C37.7043 45.5045 38.127 45.6711 38.5412 45.7758C38.8517 46.023 39.1708 46.2706 39.4986 46.5179C39.8264 46.7558 40.124 47.0221 40.3913 47.317C40.6587 47.6026 40.8831 47.9308 41.0641 48.3017C41.2454 48.6729 41.349 49.1154 41.3747 49.629ZM38.3082 50.4141C38.4895 50.3381 38.6662 50.2571 38.8387 50.1715C39.02 50.0858 39.1838 49.9905 39.3303 49.8859C39.4856 49.7719 39.6236 49.6433 39.7445 49.5007C39.8653 49.358 39.9644 49.1868 40.0421 48.9868C39.9904 48.8728 39.9212 48.7729 39.8351 48.6872C39.7487 48.5919 39.6626 48.5063 39.5762 48.4303C39.4901 48.3447 39.4037 48.259 39.3176 48.1734C39.2399 48.0877 39.1753 47.9831 39.1233 47.8595C39.0113 47.8405 38.9122 47.8072 38.8258 47.7595C38.7396 47.7025 38.6533 47.6502 38.5671 47.6026C38.4895 47.5456 38.4031 47.4929 38.3082 47.4456C38.2221 47.398 38.1185 47.3693 37.9977 47.36C37.8079 47.2553 37.6354 47.179 37.4802 47.1314C37.3336 47.084 37.2213 47.0221 37.1439 46.9461C37.0835 46.9461 37.036 46.9604 37.0013 46.9887C37.0877 47.3503 37.1524 47.6929 37.1955 48.0164C37.2387 48.3303 37.2602 48.6492 37.2602 48.9725C37.269 49.2867 37.256 49.61 37.2213 49.9432C37.1868 50.2761 37.1394 50.6377 37.079 51.0279C37.1653 51.0182 37.243 50.9992 37.3119 50.9706C37.3895 50.9326 37.4629 50.8946 37.5318 50.8566C37.6095 50.8183 37.6871 50.785 37.7647 50.7566C37.8511 50.7186 37.9502 50.6947 38.0623 50.6853C38.0883 50.628 38.1227 50.5807 38.1659 50.5424C38.2176 50.5044 38.265 50.4617 38.3082 50.4141ZM51.3221 45.4475C51.3309 45.5142 51.3309 45.5665 51.3221 45.6045C51.3221 45.6331 51.3179 45.6615 51.3094 45.6901C51.3094 45.7188 51.3094 45.7518 51.3094 45.7901C51.3094 45.8184 51.3179 45.8661 51.3351 45.9327C51.1541 46.2563 50.9427 46.4799 50.7013 46.6035C50.4683 46.7175 50.2137 46.8031 49.9378 46.8604C49.6617 46.9081 49.3771 46.9604 49.0838 47.0174C48.7992 47.0744 48.5146 47.198 48.2297 47.3883C48.1176 47.341 48.0143 47.341 47.9194 47.3883C47.833 47.436 47.7037 47.4503 47.5312 47.4313C47.4793 47.4883 47.4146 47.5312 47.337 47.5596C47.2593 47.5786 47.1817 47.6025 47.104 47.6309C47.1387 47.7165 47.1515 47.8072 47.143 47.9021C47.143 47.9878 47.156 48.0591 47.1817 48.1164C47.4838 48.1447 47.8158 48.1401 48.178 48.1021C48.549 48.0641 48.9113 48.0401 49.265 48.0308C49.2735 48.0781 49.2693 48.1114 49.252 48.1304C49.2348 48.1401 49.2303 48.1637 49.239 48.202C49.2995 48.2494 49.3599 48.3113 49.4203 48.3873C49.4807 48.454 49.5409 48.5206 49.6013 48.5873C49.6617 48.6539 49.7221 48.7109 49.7825 48.7585C49.8514 48.7965 49.9291 48.8109 50.0155 48.8012C50.0499 48.8775 50.0714 48.9631 50.0801 49.0581C50.0974 49.1438 50.0886 49.2341 50.0542 49.3294C49.9161 49.434 49.7783 49.5433 49.6402 49.6576C49.5022 49.7623 49.3554 49.8575 49.2004 49.9432C49.0536 50.0288 48.894 50.1001 48.7215 50.1571C48.5575 50.2048 48.3723 50.2238 48.165 50.2141C48.1221 50.2141 48.0874 50.2141 48.0617 50.2141C48.0445 50.2141 48.0185 50.2001 47.9841 50.1715C47.9149 50.2191 47.8158 50.2331 47.6865 50.2141C47.5656 50.1951 47.4708 50.2095 47.4016 50.2571C47.3067 50.2095 47.1904 50.1905 47.0524 50.2001C46.923 50.2001 46.8064 50.1808 46.7031 50.1428C46.565 50.3427 46.44 50.5567 46.3279 50.785C46.2158 51.0135 46.1164 51.2561 46.0303 51.5131C46.3234 51.5604 46.565 51.5797 46.7548 51.5701C46.9533 51.5604 47.1387 51.5464 47.3112 51.5274C47.4838 51.4987 47.6605 51.4751 47.8418 51.4558C48.0228 51.4274 48.2514 51.4178 48.5273 51.4274C48.7001 51.3228 48.9028 51.2561 49.1354 51.2275C49.3771 51.1895 49.597 51.1325 49.7955 51.0562C49.8644 51.0849 49.9248 51.1372 49.9765 51.2132C50.0285 51.2798 50.0759 51.3465 50.1188 51.4131C50.1708 51.4701 50.2224 51.5224 50.2741 51.5701C50.326 51.6177 50.3907 51.6367 50.4683 51.6271C50.5028 51.6653 50.5243 51.7127 50.533 51.77C50.5502 51.8173 50.5632 51.865 50.5717 51.9126C50.5804 51.9603 50.5934 52.0029 50.6106 52.0409C50.6363 52.0696 50.6753 52.0792 50.727 52.0696C50.5977 52.3835 50.4466 52.6261 50.2741 52.7974C50.1103 52.9593 49.9206 53.0829 49.7049 53.1686C49.4892 53.2542 49.2478 53.3209 48.9802 53.3682C48.7215 53.4158 48.4324 53.4728 48.1134 53.5395C48.0357 53.5585 47.9711 53.5538 47.9194 53.5252C47.8675 53.5062 47.807 53.4968 47.7382 53.4968C47.5397 53.5445 47.3025 53.5871 47.0264 53.6251C46.7505 53.6631 46.4702 53.6774 46.1856 53.6681C45.9007 53.6584 45.6291 53.6158 45.3702 53.5395C45.1116 53.4728 44.9001 53.3492 44.7364 53.1686C44.6672 53.1019 44.6198 53.0259 44.5941 52.9403C44.5768 52.845 44.5206 52.7737 44.4258 52.7261C44.417 52.6024 44.3998 52.4645 44.3741 52.3122C44.3481 52.1599 44.3222 52.0029 44.2965 51.8413C44.2705 51.67 44.249 51.5034 44.2318 51.3418C44.2231 51.1799 44.2318 51.0325 44.2575 50.8993C44.2835 50.7566 44.3352 50.628 44.4128 50.514C44.4992 50.3997 44.5294 50.2761 44.5034 50.1428C44.5466 50.1335 44.5723 50.1095 44.5811 50.0715C44.5895 50.0239 44.6243 50.0049 44.6847 50.0145C44.7364 49.8432 44.7923 49.6813 44.8527 49.5293C44.9131 49.377 44.9735 49.2294 45.0339 49.0868C45.1028 48.9441 45.1675 48.8012 45.2279 48.6586C45.2971 48.5063 45.3617 48.34 45.4221 48.1591C45.3013 48.0354 45.2107 47.9021 45.1503 47.7595C45.0986 47.6072 45.0599 47.4599 45.0339 47.317C45.008 47.1647 44.9865 47.0127 44.9693 46.8604C44.952 46.6985 44.9218 46.5369 44.8787 46.3752C44.9648 46.2323 45.0684 46.1183 45.1892 46.0327C45.3185 45.9374 45.4566 45.8614 45.6031 45.8041C45.7499 45.7471 45.9095 45.6995 46.082 45.6615C46.2545 45.6235 46.4357 45.5805 46.6255 45.5332C46.9705 45.4095 47.2765 45.3142 47.5442 45.2476C47.82 45.181 48.0874 45.1286 48.3463 45.0906C48.6137 45.043 48.8898 45.0003 49.1744 44.9623C49.459 44.924 49.7825 44.867 50.1448 44.791C50.2224 44.8767 50.2958 44.9194 50.3647 44.9194C50.3992 44.8337 50.4381 44.81 50.4813 44.848C50.533 44.8767 50.5545 44.848 50.546 44.7624C50.6321 44.924 50.7399 45.062 50.8693 45.1763C51.0073 45.2809 51.1584 45.3712 51.3221 45.4475ZM68.4741 48.9441C68.6034 48.9535 68.694 48.9868 68.7457 49.0438C68.8061 49.0915 68.8451 49.1534 68.8623 49.2294C68.888 49.2961 68.8968 49.3723 68.888 49.4577C68.8795 49.534 68.8753 49.615 68.8753 49.7006C68.7457 49.7956 68.5819 49.8765 68.3835 49.9432C68.1937 50.0002 67.9823 50.0478 67.7496 50.0858C67.5167 50.1238 67.2708 50.1525 67.0119 50.1715C66.7617 50.1808 66.5116 50.1858 66.2614 50.1858C66.2185 50.4521 66.1666 50.7376 66.1062 51.0419C66.046 51.3465 65.9466 51.708 65.8086 52.1266C65.688 52.4215 65.5499 52.6311 65.3946 52.7547C65.2394 52.8687 65.0753 52.926 64.9028 52.926C64.7391 52.926 64.5708 52.883 64.3983 52.7974C64.2258 52.7024 64.062 52.5977 63.9067 52.4835C63.872 52.2362 63.8678 51.9886 63.8938 51.7413C63.9195 51.4844 63.9584 51.1705 64.0101 50.7993C63.9584 50.6853 63.8895 50.609 63.8031 50.571C63.7167 50.5234 63.6219 50.4997 63.5185 50.4997C63.4237 50.4901 63.333 50.495 63.2467 50.514C63.1605 50.533 63.1001 50.552 63.0657 50.571C62.9016 50.5617 62.7291 50.5187 62.5481 50.4427C62.3756 50.3664 62.2074 50.2808 62.0433 50.1858C61.8796 50.0811 61.7328 49.9715 61.6035 49.8575C61.4826 49.7336 61.3923 49.6149 61.3318 49.5007C61.375 49.4247 61.3835 49.3151 61.3575 49.1724C61.3403 49.0298 61.2929 48.9251 61.2152 48.8585C61.2844 48.8395 61.3318 48.7822 61.3575 48.6872C61.3923 48.5919 61.3965 48.5206 61.3705 48.473C61.5086 48.435 61.6164 48.3447 61.6941 48.202C61.7805 48.0497 61.8796 47.8878 61.9917 47.7165C62.1038 47.5456 62.259 47.3836 62.4575 47.2313C62.656 47.0697 62.9491 46.9604 63.3373 46.9031C63.5874 47.065 63.7859 47.1933 63.9324 47.2886C64.0877 47.3836 64.2128 47.4549 64.3077 47.5026C64.4113 47.5596 64.4889 47.5979 64.5406 47.6169C64.5493 47.5786 64.575 47.5502 64.6182 47.5312C64.6699 47.5122 64.7001 47.4789 64.7089 47.4313C64.7433 47.3076 64.7521 47.2124 64.7348 47.1457C64.7176 47.0697 64.7348 46.9794 64.7865 46.8748C64.8297 46.7985 64.8856 46.7035 64.9548 46.5892C65.0324 46.4656 65.0626 46.3133 65.0451 46.1326C65.1315 46.066 65.2092 45.9947 65.2781 45.9184C65.3557 45.8328 65.4333 45.7568 65.511 45.6901C65.5974 45.6138 65.688 45.5522 65.7829 45.5045C65.8862 45.4475 66.0113 45.4189 66.1581 45.4189C66.2357 45.5235 66.2916 45.6235 66.3261 45.7188C66.3608 45.8138 66.3953 45.9041 66.4297 45.9897C66.4642 46.0754 66.5074 46.1563 66.559 46.2323C66.6194 46.3086 66.7058 46.3799 66.8179 46.4466C66.8264 46.5322 66.8179 46.6368 66.7919 46.7605C66.7662 46.8841 66.7445 47.0077 66.7273 47.1314C66.7101 47.2457 66.7058 47.355 66.7143 47.4599C66.723 47.5549 66.7662 47.6169 66.8439 47.6452C66.7575 47.8928 66.6928 48.0974 66.6496 48.259C66.7964 48.2877 66.9645 48.3067 67.1542 48.316C67.3442 48.316 67.5252 48.3303 67.6977 48.359C67.8702 48.3873 68.0255 48.4446 68.1635 48.5303C68.3101 48.6159 68.4137 48.7539 68.4741 48.9441ZM63.0137 48.8728C63.0137 48.9582 63.0786 49.0011 63.208 49.0011C63.2424 49.0011 63.2769 49.0011 63.3116 49.0011C63.3545 48.9915 63.3977 48.9821 63.4409 48.9725C63.4841 48.9632 63.527 48.9535 63.5702 48.9441C63.527 48.8869 63.4841 48.8395 63.4409 48.8012C63.3977 48.7632 63.3545 48.7299 63.3116 48.7016C63.2769 48.6633 63.2424 48.6443 63.208 48.6443C63.1735 48.6443 63.1303 48.6776 63.0787 48.7442C63.0355 48.8109 63.0137 48.8535 63.0137 48.8728ZM80.4373 46.5892C80.0751 46.4276 79.7732 46.199 79.5316 45.9041C79.2989 45.6092 79.1089 45.2619 78.9624 44.8624C79.0488 44.6054 79.1866 44.3912 79.3765 44.2202C79.5663 44.0393 79.7775 43.887 80.0104 43.7634C80.2521 43.6397 80.5065 43.5398 80.7738 43.4638C81.0412 43.3875 81.3001 43.3208 81.5503 43.2638C81.6019 43.2828 81.6279 43.2828 81.6279 43.2638C81.6279 43.2448 81.6494 43.2545 81.6926 43.2925C82.0031 43.1878 82.3611 43.0879 82.7663 42.9926C83.1717 42.888 83.6031 42.85 84.0602 42.8786C84.1207 42.8403 84.1941 42.8213 84.2802 42.8213C84.3666 42.812 84.4572 42.8073 84.5521 42.8073C84.6469 42.8073 84.7375 42.8073 84.8237 42.8073C84.9101 42.7976 84.9832 42.7786 85.0436 42.75C85.0956 42.8166 85.1732 42.8596 85.2765 42.8786C85.3801 42.888 85.488 42.9356 85.6001 43.0212C85.6345 43.0309 85.6345 43.0166 85.6001 42.9783C85.5656 42.9309 85.5699 42.8976 85.6131 42.8786C85.7252 42.8786 85.8243 42.907 85.9107 42.9642C85.9968 43.0212 86.0744 43.0879 86.1436 43.1639C86.2212 43.2305 86.2901 43.2925 86.3505 43.3495C86.4194 43.4065 86.4928 43.4351 86.5705 43.4351C86.6481 43.5398 86.7387 43.6397 86.8421 43.7347C86.9544 43.8204 87.0578 43.911 87.1527 44.006C87.2563 44.1012 87.3382 44.2059 87.3986 44.3199C87.4675 44.4342 87.5022 44.5625 87.5022 44.7054C87.4934 44.7624 87.5107 44.7957 87.5539 44.8051C87.597 44.8147 87.6273 44.8434 87.6445 44.8907C87.653 45.2429 87.6013 45.5475 87.4892 45.8041C87.3856 46.061 87.252 46.299 87.088 46.5179C86.9242 46.7272 86.7472 46.9271 86.5575 47.1174C86.3765 47.3076 86.2082 47.5122 86.053 47.7309C86.1563 47.8738 86.2729 48.0068 86.4022 48.1304C86.5403 48.2447 86.6783 48.359 86.8164 48.473C86.9544 48.5873 87.0838 48.7109 87.2046 48.8442C87.3339 48.9678 87.4418 49.1105 87.5279 49.2724C87.5539 49.3294 87.6098 49.3674 87.6962 49.3864C87.7221 49.5007 87.7566 49.6196 87.7998 49.7433C87.8514 49.8575 87.8989 49.9715 87.9421 50.0858C87.985 50.1905 88.011 50.2855 88.0197 50.3711C88.0282 50.4567 88.0067 50.5283 87.9551 50.5853C88.0152 50.6233 88.0499 50.6853 88.0584 50.7709C88.0671 50.8469 88.0671 50.9089 88.0584 50.9563C87.8687 51.2132 87.7393 51.3941 87.6702 51.4987C87.6013 51.6034 87.5496 51.6794 87.5149 51.727C87.4804 51.7747 87.446 51.8173 87.4116 51.8556C87.3771 51.8936 87.2995 51.9696 87.1786 52.0839C86.7215 52.3885 86.2427 52.6644 85.7424 52.9117C85.2506 53.1496 84.7375 53.3112 84.2025 53.3969C84.1596 53.4635 84.0949 53.5158 84.0086 53.5538C83.9309 53.6015 83.8403 53.6395 83.737 53.6681C83.6333 53.6964 83.5212 53.7204 83.4004 53.7394C83.2883 53.7584 83.1847 53.7774 83.0898 53.7964C83.0466 53.7774 83.0209 53.7441 83.0122 53.6964C83.0122 53.6585 82.9907 53.6301 82.9475 53.6108C82.9391 53.7251 82.8914 53.7821 82.8052 53.7821C82.7276 53.7917 82.6285 53.7727 82.5077 53.7251C82.3868 53.6774 82.2618 53.6108 82.1324 53.5252C82.0031 53.4398 81.8908 53.3589 81.7959 53.2826C81.753 53.3682 81.6968 53.4588 81.6279 53.5538C81.5675 53.6491 81.5028 53.7157 81.4337 53.7537C81.3128 53.7347 81.2225 53.7204 81.162 53.7108C81.1101 53.7014 81.0584 53.7251 81.0068 53.7821C80.9376 53.7441 80.8859 53.7014 80.8515 53.6538C80.817 53.6158 80.7826 53.5728 80.7479 53.5252C80.7134 53.4872 80.6747 53.4538 80.6315 53.4255C80.5883 53.3872 80.5237 53.3542 80.4373 53.3255C80.4548 53.2779 80.4418 53.2066 80.3986 53.1113C80.3554 53.0066 80.295 52.945 80.2174 52.926C80.2606 52.8497 80.2433 52.7547 80.1657 52.6404C80.088 52.5168 80.0276 52.3788 79.9844 52.2265C79.9932 52.1599 79.9974 52.0933 79.9974 52.0269C80.0062 51.9506 80.0146 51.884 80.0234 51.827C80.0406 51.7603 80.0621 51.7033 80.088 51.6557C80.114 51.6081 80.1569 51.5747 80.2174 51.5557C80.2089 51.4321 80.1744 51.3131 80.114 51.1991C80.1917 51.1325 80.2433 51.0515 80.2693 50.9563C80.295 50.8516 80.3167 50.747 80.334 50.6423C80.3597 50.5377 80.3899 50.4377 80.4246 50.3427C80.459 50.2381 80.5149 50.1525 80.5926 50.0858C80.5754 50.0572 80.5581 50.0335 80.5409 50.0145C80.5237 49.9955 80.5149 49.9622 80.5149 49.9145C80.6445 49.6766 80.7349 49.477 80.7868 49.3151C80.8385 49.1438 80.8774 48.9821 80.9032 48.8299C80.9376 48.6682 80.9723 48.497 81.0068 48.316C81.0412 48.1354 81.1101 47.9068 81.2137 47.6309C81.2052 47.4599 81.2225 47.3076 81.2654 47.1744C81.3086 47.0411 81.3518 46.9128 81.395 46.7891C81.4466 46.6558 81.4853 46.5179 81.5113 46.3752C81.5373 46.2323 81.533 46.066 81.4983 45.8757C81.3518 45.8947 81.2439 45.9517 81.175 46.047C81.1146 46.142 81.0757 46.2706 81.0584 46.4322C80.9808 46.5082 80.8817 46.5465 80.7609 46.5465C80.64 46.5369 80.5322 46.5512 80.4373 46.5892ZM86.1306 49.3437C85.8028 49.1438 85.5007 49.0248 85.2249 48.9868C84.9575 48.9488 84.6986 48.9535 84.4484 49.0011C84.207 49.0391 83.9741 49.0961 83.7497 49.1724C83.5255 49.2484 83.3013 49.3057 83.0769 49.3437C82.9648 49.6673 82.8484 50.0239 82.7276 50.4141C82.6068 50.8043 82.4904 51.1848 82.3784 51.5557C82.6889 51.5081 82.9735 51.4368 83.2321 51.3418C83.491 51.2465 83.7412 51.1419 83.9826 51.0279C84.2243 50.9039 84.4614 50.785 84.6944 50.671C84.9273 50.5473 85.1687 50.4331 85.4188 50.3284C85.4448 50.2141 85.5007 50.1238 85.5871 50.0572C85.6735 49.9905 85.7596 49.9289 85.846 49.8716C85.9321 49.8052 86.0055 49.7336 86.0659 49.6576C86.1264 49.5816 86.1478 49.477 86.1306 49.3437ZM85.2249 44.8767C84.6901 44.8577 84.1638 44.91 83.6463 45.0336C83.1288 45.1573 82.6932 45.3379 82.3394 45.5758C82.5119 45.7378 82.6889 45.8804 82.8699 46.004C83.0596 46.1277 83.2019 46.2943 83.2968 46.5036C83.711 46.3229 84.0732 46.0943 84.3838 45.8184C84.6944 45.5332 84.9747 45.2192 85.2249 44.8767ZM98.3294 45.4475C98.3381 45.5142 98.3381 45.5665 98.3294 45.6045C98.3294 45.6331 98.3251 45.6615 98.3164 45.6901C98.3164 45.7188 98.3164 45.7518 98.3164 45.7901C98.3164 45.8184 98.3251 45.8661 98.3424 45.9327C98.1611 46.2563 97.9499 46.4799 97.7083 46.6035C97.4753 46.7175 97.2209 46.8031 96.9448 46.8604C96.669 46.9081 96.3841 46.9604 96.091 47.0174C95.8062 47.0744 95.5216 47.198 95.237 47.3883C95.1249 47.341 95.0213 47.341 94.9264 47.3883C94.8403 47.436 94.7107 47.4503 94.5382 47.4313C94.4865 47.4883 94.4219 47.5312 94.3442 47.5596C94.2666 47.5786 94.1889 47.6025 94.1113 47.6309C94.1457 47.7165 94.1587 47.8072 94.15 47.9021C94.15 47.9878 94.1629 48.0591 94.1889 48.1164C94.4907 48.1447 94.823 48.1401 95.1853 48.1021C95.556 48.0641 95.9185 48.0401 96.272 48.0308C96.2808 48.0781 96.2765 48.1114 96.259 48.1304C96.2418 48.1401 96.2376 48.1637 96.2463 48.202C96.3064 48.2494 96.3669 48.3113 96.4273 48.3873C96.4877 48.454 96.5481 48.5206 96.6085 48.5873C96.669 48.6539 96.7294 48.7109 96.7895 48.7585C96.8587 48.7965 96.9363 48.8109 97.0225 48.8012C97.0572 48.8775 97.0786 48.9631 97.0871 49.0581C97.1046 49.1438 97.0958 49.2341 97.0614 49.3294C96.9233 49.434 96.7853 49.5433 96.6472 49.6576C96.5092 49.7623 96.3626 49.8575 96.2073 49.9432C96.0608 50.0288 95.9013 50.1001 95.7285 50.1571C95.5648 50.2048 95.3793 50.2238 95.1723 50.2141C95.1291 50.2141 95.0947 50.2141 95.0687 50.2141C95.0515 50.2141 95.0258 50.2001 94.991 50.1715C94.9221 50.2191 94.823 50.2331 94.6935 50.2141C94.5729 50.1951 94.4778 50.2095 94.4089 50.2571C94.314 50.2095 94.1977 50.1905 94.0596 50.2001C93.93 50.2001 93.8137 50.1808 93.7101 50.1428C93.572 50.3427 93.447 50.5567 93.3349 50.785C93.2228 51.0135 93.1237 51.2561 93.0373 51.5131C93.3306 51.5604 93.572 51.5797 93.762 51.5701C93.9602 51.5604 94.1457 51.5464 94.3182 51.5274C94.4907 51.4987 94.6678 51.4751 94.8487 51.4558C95.03 51.4274 95.2584 51.4178 95.5345 51.4274C95.707 51.3228 95.9098 51.2561 96.1427 51.2275C96.3841 51.1895 96.6043 51.1325 96.8025 51.0562C96.8717 51.0849 96.9321 51.1372 96.9838 51.2132C97.0354 51.2798 97.0829 51.3465 97.1261 51.4131C97.1777 51.4701 97.2297 51.5224 97.2813 51.5701C97.333 51.6177 97.3977 51.6367 97.4753 51.6271C97.51 51.6653 97.5315 51.7127 97.54 51.77C97.5575 51.8173 97.5702 51.865 97.5789 51.9126C97.5874 51.9603 97.6004 52.0029 97.6176 52.0409C97.6436 52.0696 97.6825 52.0792 97.7342 52.0696C97.6049 52.3835 97.4538 52.6261 97.2813 52.7974C97.1173 52.9593 96.9276 53.0829 96.7119 53.1686C96.4965 53.2542 96.2548 53.3209 95.9874 53.3682C95.7285 53.4158 95.4397 53.4728 95.1206 53.5395C95.043 53.5585 94.9781 53.5538 94.9264 53.5252C94.8747 53.5062 94.8143 53.4968 94.7454 53.4968C94.5469 53.5445 94.3098 53.5871 94.0336 53.6251C93.7575 53.6631 93.4772 53.6774 93.1926 53.6681C92.908 53.6584 92.6364 53.6158 92.3775 53.5395C92.1186 53.4728 91.9074 53.3492 91.7433 53.1686C91.6744 53.1019 91.627 53.0259 91.601 52.9403C91.5838 52.845 91.5279 52.7737 91.433 52.7261C91.4243 52.6024 91.4071 52.4645 91.3811 52.3122C91.3554 52.1599 91.3294 52.0029 91.3035 51.8413C91.2778 51.67 91.256 51.5034 91.2388 51.3418C91.2303 51.1799 91.2388 51.0325 91.2648 50.8993C91.2905 50.7566 91.3424 50.628 91.4201 50.514C91.5062 50.3997 91.5364 50.2761 91.5107 50.1428C91.5536 50.1335 91.5796 50.1095 91.5881 50.0715C91.5968 50.0239 91.6312 50.0049 91.6917 50.0145C91.7433 49.8432 91.7995 49.6813 91.8599 49.5293C91.9203 49.377 91.9808 49.2294 92.0409 49.0868C92.1101 48.9441 92.1747 48.8012 92.2352 48.6586C92.3041 48.5063 92.3687 48.34 92.4291 48.1591C92.3086 48.0354 92.2179 47.9021 92.1575 47.7595C92.1058 47.6072 92.0669 47.4599 92.0409 47.317C92.0152 47.1647 91.9935 47.0127 91.9763 46.8604C91.959 46.6985 91.9288 46.5369 91.8859 46.3752C91.972 46.2323 92.0756 46.1183 92.1962 46.0327C92.3258 45.9374 92.4638 45.8614 92.6104 45.8041C92.7569 45.7471 92.9167 45.6995 93.0892 45.6615C93.2617 45.6235 93.4427 45.5805 93.6324 45.5332C93.9775 45.4095 94.2838 45.3142 94.5512 45.2476C94.8273 45.181 95.0947 45.1286 95.3533 45.0906C95.6209 45.043 95.8968 45.0003 96.1814 44.9623C96.4662 44.924 96.7895 44.867 97.152 44.791C97.2297 44.8767 97.3028 44.9194 97.372 44.9194C97.4064 44.8337 97.4451 44.81 97.4883 44.848C97.54 44.8767 97.5617 44.848 97.553 44.7624C97.6394 44.924 97.7472 45.062 97.8765 45.1763C98.0146 45.2809 98.1654 45.3712 98.3294 45.4475ZM107.513 52.2835C107.462 52.4455 107.384 52.6118 107.28 52.7831C107.186 52.945 107.069 53.0923 106.931 53.2256C106.802 53.3492 106.655 53.4539 106.491 53.5395C106.327 53.6251 106.155 53.6728 105.974 53.6824C105.861 53.6538 105.784 53.6205 105.741 53.5825C105.706 53.5538 105.667 53.5252 105.624 53.4968C105.599 53.4778 105.573 53.4635 105.547 53.4538C105.529 53.4349 105.512 53.4205 105.495 53.4112L105.34 53.3399L105.391 53.1543C105.409 53.0783 105.404 53.021 105.379 52.983C105.353 52.9353 105.301 52.8737 105.223 52.7974C105.197 52.769 105.171 52.7404 105.146 52.7117C105.12 52.6834 105.098 52.6547 105.081 52.6261L104.861 52.3551L105.21 52.2552C105.426 52.1885 105.568 52.1029 105.637 51.9983C105.715 51.8936 105.745 51.7177 105.728 51.4701C105.555 51.4321 105.409 51.4274 105.288 51.4558C105.176 51.4844 105.059 51.5177 104.938 51.5557C104.783 51.6034 104.624 51.6461 104.46 51.6843C104.305 51.7127 104.132 51.727 103.942 51.727C103.873 51.727 103.809 51.727 103.748 51.727C103.688 51.7177 103.623 51.708 103.554 51.6984L103.425 51.67C103.407 51.5654 103.39 51.5081 103.373 51.4987C103.356 51.4797 103.338 51.4607 103.321 51.4417C103.278 51.3941 103.231 51.3321 103.179 51.2561C103.136 51.1705 103.127 51.0659 103.153 50.9422C103.11 50.8566 103.084 50.7709 103.075 50.6853C103.024 50.7993 102.985 50.9183 102.959 51.0419L102.907 51.1848L102.778 51.2132C102.761 51.2228 102.748 51.2465 102.739 51.2845C102.73 51.3131 102.726 51.3371 102.726 51.3561L102.661 51.5987C102.644 51.6177 102.627 51.6367 102.609 51.6557C102.592 51.6653 102.575 51.6794 102.558 51.6984C102.541 51.784 102.519 51.8697 102.493 51.9553C102.467 52.0409 102.441 52.1219 102.416 52.1979C102.372 52.3218 102.334 52.4455 102.299 52.5691C102.273 52.6834 102.264 52.7974 102.273 52.9117L102.221 53.0686C102.178 53.1256 102.131 53.1733 102.079 53.2113C102.027 53.2399 101.976 53.2685 101.924 53.2969C101.906 53.3159 101.881 53.3349 101.846 53.3542C101.82 53.3635 101.799 53.3732 101.781 53.3825L101.743 53.5395L101.587 53.5681C101.493 53.5871 101.423 53.6015 101.38 53.6108C101.346 53.6205 101.303 53.6251 101.251 53.6251L101.122 53.6108C101.027 53.5252 100.953 53.4588 100.902 53.4112C100.85 53.3542 100.79 53.3019 100.72 53.2542C100.643 53.1399 100.6 53.0543 100.591 52.9973C100.583 52.9403 100.574 52.8877 100.565 52.8403C100.548 52.7831 100.539 52.7357 100.539 52.6974C100.531 52.6594 100.518 52.6311 100.5 52.6118L100.332 52.4408L100.475 52.3122L100.487 52.0696C100.66 51.5844 100.841 51.1182 101.031 50.671C101.229 50.2238 101.432 49.7669 101.639 49.3007C101.708 49.1487 101.773 48.9965 101.833 48.8442C101.902 48.6919 101.971 48.5396 102.04 48.3873C102.032 48.359 102.027 48.3257 102.027 48.2877C102.027 48.2494 102.036 48.2067 102.053 48.1591C102.148 47.9974 102.226 47.8545 102.286 47.7309C102.346 47.5979 102.407 47.4646 102.467 47.3313C102.536 47.1697 102.605 47.0127 102.674 46.8604C102.752 46.7082 102.847 46.5512 102.959 46.3893L103.166 46.2896C103.192 46.28 103.222 46.2706 103.257 46.261C103.291 46.242 103.33 46.2323 103.373 46.2323L103.567 46.261C103.809 46.1373 104.02 45.966 104.201 45.7471C104.382 45.5188 104.568 45.2476 104.757 44.9337L104.887 44.7338L105.055 44.848C105.098 44.8767 105.158 44.905 105.236 44.9337C105.314 44.9527 105.396 44.9764 105.482 45.005C105.637 45.043 105.784 45.086 105.922 45.1336C106.06 45.181 106.172 45.2523 106.258 45.3476C106.31 45.4998 106.34 45.6138 106.349 45.6901C106.357 45.7661 106.37 45.8424 106.388 45.9184C106.414 46.08 106.435 46.242 106.452 46.4036C106.478 46.5655 106.496 46.7462 106.504 46.9461C106.547 47.1077 106.582 47.2693 106.608 47.4313C106.642 47.5836 106.672 47.7405 106.698 47.9021C106.741 48.1304 106.785 48.354 106.828 48.5729C106.871 48.7822 106.927 48.9821 106.996 49.1724C107.065 49.1724 107.108 49.1771 107.125 49.1867C107.168 49.1677 107.212 49.1534 107.255 49.1438C107.306 49.1344 107.362 49.1248 107.423 49.1154L107.565 49.1011L107.617 49.2437C107.625 49.2914 107.669 49.339 107.746 49.3864C107.858 49.396 107.94 49.4247 107.992 49.472C108.044 49.5103 108.091 49.553 108.135 49.6006C108.169 49.6386 108.203 49.6673 108.238 49.6863L108.432 49.7719L108.328 49.9859C108.242 50.1571 108.117 50.3237 107.953 50.4854C107.798 50.6377 107.621 50.766 107.423 50.8706C107.432 50.9279 107.436 50.9849 107.436 51.0419C107.444 51.0895 107.457 51.1419 107.475 51.1991C107.5 51.3608 107.522 51.5274 107.539 51.6984C107.557 51.8697 107.557 52.0459 107.539 52.2265L107.513 52.2835ZM103.774 49.8146C104.033 49.7956 104.266 49.7766 104.473 49.7576C104.688 49.7289 104.926 49.6863 105.184 49.629C105.124 49.3437 105.059 49.0488 104.99 48.7442C104.921 48.4303 104.848 48.1211 104.77 47.8165L104.693 47.9594C104.52 48.1591 104.352 48.3827 104.188 48.6299C104.033 48.8775 103.899 49.1105 103.787 49.3294C103.735 49.415 103.683 49.5007 103.632 49.5863C103.58 49.6719 103.532 49.7576 103.49 49.8432C103.541 49.8336 103.589 49.8289 103.632 49.8289C103.683 49.8289 103.731 49.8242 103.774 49.8146ZM113.1 51.9983C113.006 52.3788 112.919 52.6691 112.842 52.8687C112.773 53.059 112.665 53.2589 112.518 53.4682C112.406 53.4492 112.329 53.4635 112.285 53.5111C112.242 53.5585 112.195 53.6015 112.143 53.6395C112.065 53.6584 112.009 53.6584 111.975 53.6395C111.94 53.6205 111.91 53.5968 111.884 53.5681C111.858 53.5491 111.824 53.5252 111.781 53.4968C111.746 53.4778 111.69 53.4682 111.613 53.4682C111.595 53.3922 111.574 53.3209 111.548 53.2542C111.531 53.1876 111.474 53.1639 111.38 53.1829C111.397 53.1066 111.401 53.0449 111.393 52.9973C111.384 52.9403 111.371 52.8927 111.354 52.8547C111.345 52.807 111.336 52.764 111.328 52.7261C111.319 52.6784 111.323 52.6214 111.341 52.5548C111.298 52.5548 111.263 52.5215 111.237 52.4548C111.211 52.3885 111.181 52.3218 111.147 52.2552C111.173 52.0839 111.198 51.922 111.224 51.77C111.25 51.6177 111.28 51.4751 111.315 51.3418C111.358 51.2085 111.393 51.0752 111.418 50.9422C111.444 50.8089 111.431 50.671 111.38 50.5283C111.414 50.5567 111.44 50.552 111.457 50.514C111.474 50.4664 111.487 50.4094 111.496 50.3427C111.505 50.2665 111.509 50.1951 111.509 50.1285C111.509 50.0525 111.505 49.9905 111.496 49.9432C111.582 49.6956 111.651 49.4437 111.703 49.1867C111.764 48.9202 111.815 48.6586 111.858 48.4017C111.91 48.1447 111.962 47.8928 112.014 47.6452C112.065 47.3979 112.134 47.1697 112.221 46.9604C112.316 46.9411 112.419 46.9554 112.531 47.0031C112.652 47.0411 112.725 47.0934 112.751 47.16C112.975 46.9698 113.174 46.7415 113.346 46.4749C113.519 46.199 113.696 45.9327 113.877 45.6758C114.058 45.4189 114.256 45.1906 114.472 44.9907C114.696 44.791 114.977 44.6721 115.313 44.6341C115.486 44.7767 115.675 44.924 115.882 45.0763C116.098 45.2192 116.275 45.4095 116.413 45.6471C116.482 45.6854 116.538 45.7281 116.581 45.7758C116.633 45.8138 116.693 45.8567 116.762 45.9041V46.0753C116.866 46.18 116.948 46.3036 117.008 46.4466C117.077 46.5795 117.138 46.7272 117.189 46.8888C117.241 47.0411 117.293 47.198 117.344 47.36C117.396 47.5122 117.457 47.6595 117.525 47.8022C117.508 47.8498 117.5 47.8928 117.5 47.9308C117.5 47.9594 117.504 47.9925 117.513 48.0308C117.53 48.0687 117.543 48.1067 117.551 48.1447C117.56 48.1827 117.56 48.2354 117.551 48.3017C117.525 48.7206 117.4 49.0581 117.176 49.3151C116.961 49.572 116.697 49.7862 116.387 49.9572C116.077 50.1191 115.744 50.2571 115.391 50.3711C115.037 50.4854 114.718 50.609 114.433 50.7423C114.433 50.7803 114.446 50.7993 114.472 50.7993C114.506 50.7993 114.519 50.8233 114.511 50.8706C114.718 51.0135 114.882 51.1275 115.003 51.2132C115.123 51.2988 115.235 51.3701 115.339 51.4274C115.451 51.4844 115.567 51.5367 115.688 51.5844C115.818 51.6224 115.994 51.67 116.219 51.727C116.443 51.784 116.616 51.8317 116.736 51.8697C116.866 51.8983 116.982 51.9269 117.086 51.9553C117.189 51.9743 117.293 51.9936 117.396 52.0126C117.508 52.0219 117.664 52.0363 117.862 52.0553C117.94 52.1409 118.004 52.2455 118.056 52.3692C118.116 52.4835 118.155 52.6024 118.173 52.7261C118.19 52.8403 118.194 52.9543 118.186 53.0686C118.177 53.1733 118.147 53.2589 118.095 53.3255C118.103 53.3542 118.121 53.3682 118.147 53.3682C118.181 53.3589 118.216 53.3589 118.25 53.3682C118.198 53.4065 118.155 53.4538 118.121 53.5111C118.086 53.5681 118.052 53.6251 118.017 53.6824C117.983 53.7394 117.944 53.7871 117.901 53.8251C117.858 53.8727 117.797 53.901 117.72 53.9107C117.452 54.0247 117.116 54.0297 116.71 53.925C116.305 53.8297 115.792 53.6491 115.171 53.3825C114.86 53.2492 114.606 53.1353 114.407 53.04C114.218 52.9353 114.049 52.8354 113.903 52.7404C113.765 52.6357 113.635 52.5264 113.515 52.4121C113.402 52.2979 113.264 52.1599 113.1 51.9983ZM114.951 47.103C114.856 47.2553 114.748 47.3933 114.627 47.5169C114.515 47.6405 114.403 47.7689 114.291 47.9021C114.187 48.0258 114.093 48.1687 114.006 48.3303C113.92 48.4826 113.86 48.6633 113.825 48.8728C114.127 48.8345 114.442 48.7442 114.77 48.6016C115.097 48.4493 115.408 48.3067 115.701 48.1734C115.667 47.8785 115.572 47.6406 115.416 47.4599C115.27 47.279 115.115 47.16 114.951 47.103ZM127.214 49.629C127.206 49.6766 127.197 49.7196 127.188 49.7576C127.18 49.7862 127.171 49.8146 127.163 49.8432C127.154 49.8716 127.15 49.9099 127.15 49.9572C127.15 49.9955 127.15 50.0478 127.15 50.1145C126.891 50.6187 126.563 51.0419 126.166 51.3845C125.778 51.727 125.347 52.0316 124.872 52.2979C124.406 52.5548 123.919 52.7927 123.41 53.0116C122.901 53.2209 122.405 53.4492 121.922 53.6964C121.715 53.6395 121.556 53.5445 121.444 53.4112C121.34 53.2779 121.258 53.1256 121.198 52.9543C121.146 52.7737 121.107 52.5787 121.081 52.3692C121.064 52.1505 121.047 51.9269 121.029 51.6984C121.055 51.5937 121.09 51.5081 121.133 51.4417C121.185 51.3655 121.211 51.2608 121.211 51.1275C121.28 50.8803 121.348 50.6377 121.418 50.3997C121.487 50.1618 121.53 49.9192 121.547 49.6719C121.573 49.5957 121.62 49.5433 121.689 49.515C121.732 49.0581 121.732 48.5969 121.689 48.1304C121.655 47.6549 121.586 47.2123 121.482 46.8031C121.491 46.7082 121.5 46.6415 121.508 46.6035C121.525 46.5559 121.525 46.5226 121.508 46.5036C121.5 46.4276 121.521 46.3893 121.573 46.3893C121.633 46.3893 121.694 46.3893 121.754 46.3893C121.754 46.2466 121.728 46.104 121.676 45.9614C121.633 45.8184 121.59 45.6568 121.547 45.4759C121.607 45.3332 121.646 45.1953 121.664 45.062C121.681 44.9194 121.719 44.7957 121.78 44.6911C122.246 44.8527 122.69 45.048 123.113 45.2762C123.544 45.5045 123.967 45.6711 124.38 45.7758C124.691 46.023 125.01 46.2706 125.338 46.5179C125.666 46.7558 125.964 47.0221 126.231 47.317C126.498 47.6026 126.722 47.9308 126.904 48.3017C127.085 48.6729 127.188 49.1154 127.214 49.629ZM124.148 50.4141C124.329 50.3381 124.506 50.2571 124.678 50.1715C124.859 50.0858 125.023 49.9905 125.17 49.8859C125.325 49.7719 125.463 49.6433 125.584 49.5007C125.705 49.358 125.804 49.1868 125.882 48.9868C125.83 48.8728 125.761 48.7729 125.674 48.6872C125.588 48.5919 125.502 48.5063 125.416 48.4303C125.329 48.3447 125.243 48.259 125.157 48.1734C125.079 48.0877 125.015 47.9831 124.963 47.8595C124.851 47.8405 124.751 47.8072 124.665 47.7595C124.579 47.7025 124.493 47.6502 124.406 47.6026C124.329 47.5456 124.243 47.4929 124.148 47.4456C124.061 47.398 123.958 47.3693 123.837 47.36C123.648 47.2553 123.475 47.179 123.32 47.1314C123.173 47.084 123.061 47.0221 122.983 46.9461C122.923 46.9461 122.875 46.9604 122.841 46.9887C122.927 47.3503 122.992 47.6929 123.035 48.0164C123.078 48.3303 123.1 48.6492 123.1 48.9725C123.108 49.2867 123.095 49.61 123.061 49.9432C123.026 50.2761 122.979 50.6377 122.919 51.0279C123.005 51.0182 123.082 50.9992 123.151 50.9706C123.229 50.9326 123.302 50.8946 123.371 50.8566C123.449 50.8183 123.527 50.785 123.604 50.7566C123.69 50.7186 123.79 50.6947 123.902 50.6853C123.928 50.628 123.962 50.5807 124.005 50.5424C124.057 50.5044 124.105 50.4617 124.148 50.4141Z" fill="white"/>
<path d="M2.68414 35.2078L31.7614 19.694C32.4036 20.6086 32.0568 21.8128 30.9868 22.3836L5.78396 35.8302C4.71406 36.4012 3.32622 36.1224 2.68414 35.2078Z" fill="white"/>
<path fill-rule="evenodd" clip-rule="evenodd" d="M59.0661 37.3182C58.8099 37.3448 58.5435 37.3624 58.2738 37.3728C56.0756 37.4564 54.1888 36.2476 53.1452 34.626L52.3094 33.3274L48.9171 29.3822L46.2684 26.4054L42.8173 22.6416L38.9348 18.5749L36.8078 16.2994L2.44001 34.8456C1.50112 33.3072 2.1472 31.4202 3.9178 30.5296L35.3139 14.7358L34.9738 13.8927C34.8537 13.5955 34.8762 13.2706 35.0364 12.9865C35.0799 12.9094 35.135 12.8373 35.2005 12.772L35.2447 12.7278C35.3674 12.6052 35.508 12.496 35.6633 12.4026L35.7377 12.3577L35.7848 12.3391C36.0192 12.2463 36.2802 12.2108 36.5374 12.2368L36.6132 12.2444C36.6704 12.2502 36.7269 12.2612 36.7813 12.2771C36.9775 12.3345 37.1597 12.4212 37.3188 12.5331L38.2274 13.1717L39.5226 12.2746C39.7242 12.1351 39.9384 12.0092 40.1636 11.898L40.5711 11.6968C40.8782 11.5451 41.2188 11.4471 41.5721 11.4087L41.748 11.3895C41.9123 11.3717 42.0794 11.3872 42.2349 11.4348C42.446 11.4994 42.6277 11.6225 42.7495 11.7809C42.8669 11.9341 42.9267 12.1165 42.917 12.2986L42.9057 12.5158C42.9005 12.6138 42.8776 12.7106 42.8379 12.803C42.757 12.991 42.6093 13.1537 42.4145 13.2691L42.1113 13.4488L41.3715 13.8208L39.7609 14.6956L41.1443 16.0026L42.3124 17.1581L44.5454 18.8391L46.4256 20.3836L47.7311 21.5242L48.7491 22.4628L49.7019 23.4668L50.7199 24.4056L51.3727 24.9758L51.9598 25.6116L52.6907 26.3482L53.4215 27.085L54.1524 27.8216L54.596 28.3564L55.3268 29.093L55.914 29.7288L56.3576 30.2636L56.9448 30.8992L57.3884 31.434L57.9755 32.0698L58.5627 32.7054L59.0063 33.2402L59.4497 33.775L59.752 34.1394C59.8459 34.2526 59.9236 34.3744 59.9839 34.5028C60.0276 34.5956 60.057 34.6926 60.0714 34.7916L60.2153 35.7714C60.2505 36.0106 60.2231 36.2534 60.1354 36.483L60.0995 36.5766C60.013 36.8028 59.8409 36.9994 59.6093 37.1368C59.4476 37.2326 59.2625 37.2976 59.0661 37.3182ZM38.1685 15.2801C38.6027 14.8464 38.5689 14.2236 38.0926 13.8888C37.6164 13.5541 36.8782 13.6342 36.4438 14.0679C36.0096 14.5015 36.0434 15.1244 36.5196 15.4591C36.9959 15.7938 37.7341 15.7137 38.1685 15.2801Z" fill="white"/>
<path d="M127.313 35.1986L98.2358 19.685C97.5938 20.5996 97.9406 21.8038 99.0104 22.3746L124.213 35.8212C125.283 36.392 126.671 36.1134 127.313 35.1986Z" fill="white"/>
<path fill-rule="evenodd" clip-rule="evenodd" d="M70.9311 37.3092C71.1875 37.3358 71.4537 37.3536 71.7234 37.3638C73.9216 37.4476 75.8085 36.2386 76.8522 34.617L77.688 33.3184L81.0801 29.3732L83.7288 26.3966L87.1801 22.6326L91.0624 18.5659L93.1895 16.2904L127.557 34.8366C128.496 33.2982 127.85 31.4112 126.079 30.5206L94.6833 14.7268L95.0234 13.8838C95.1435 13.5865 95.121 13.2616 94.9608 12.9775C94.9175 12.9004 94.8622 12.8283 94.797 12.763L94.7525 12.7188C94.6299 12.5963 94.4892 12.487 94.3342 12.3936L94.2595 12.3488L94.2127 12.3302C93.9782 12.2373 93.7172 12.2018 93.4601 12.2278L93.384 12.2355C93.3268 12.2413 93.2705 12.2522 93.2162 12.2681C93.0197 12.3255 92.8377 12.4123 92.6784 12.5242L91.7701 13.1627L90.4746 12.2657C90.2732 12.1262 90.0588 12.0003 89.8338 11.8891L89.4263 11.6879C89.119 11.5362 88.7787 11.4381 88.4253 11.3997L88.2492 11.3806C88.0849 11.3627 87.9181 11.3782 87.7625 11.4258C87.5515 11.4905 87.3695 11.6136 87.248 11.7719C87.1303 11.9251 87.0705 12.1075 87.0802 12.2896L87.0917 12.5068C87.0969 12.6048 87.1196 12.7017 87.1593 12.794C87.2402 12.982 87.3879 13.1447 87.5827 13.2601L87.8859 13.4398L88.6257 13.8118L90.2366 14.6866L88.8529 15.9936L87.6848 17.1491L85.4518 18.8301L83.5718 20.3746L82.2664 21.5152L81.2481 22.4538L80.2956 23.458L79.2773 24.3966L78.6245 24.9668L78.0374 25.6026L77.3065 26.3392L76.5757 27.076L75.8448 27.8126L75.4012 28.3474L74.6704 29.084L74.0832 29.7198L73.6398 30.2546L73.0524 30.8902L72.609 31.425L72.0217 32.0608L71.4345 32.6964L70.9911 33.2312L70.5475 33.766L70.2452 34.1304C70.1513 34.2436 70.0736 34.3654 70.0133 34.4938C69.9698 34.5866 69.9402 34.6836 69.9258 34.7826L69.7819 35.7624C69.7469 36.0016 69.7741 36.2444 69.862 36.474L69.8977 36.5676C69.9844 36.7938 70.1565 36.9906 70.3879 37.1278C70.5496 37.2236 70.7349 37.2888 70.9311 37.3092ZM91.8289 15.2711C91.3945 14.8375 91.4285 14.2146 91.9046 13.8799C92.3809 13.5451 93.119 13.6253 93.5534 14.0589C93.9879 14.4925 93.9538 15.1154 93.4776 15.4501C93.0015 15.7849 92.2631 15.7047 91.8289 15.2711Z" fill="white"/>
<path fill-rule="evenodd" clip-rule="evenodd" d="M47.0413 0C46.5211 2.98064 48.0818 7.65034 50.7872 11.4258L51.2035 12.32C51.377 13.7441 51.7861 16.5923 52.0359 16.5923L52.4522 15.5987C52.7989 16.9897 53.8257 19.871 55.1576 20.2684L55.2616 19.6723L57.759 23.0504L57.967 22.2556C58.175 22.2556 58.8203 22.5734 59.736 23.8452C60.8804 25.4348 61.7129 25.5342 63.4819 25.6336L64.4183 26.1304H64.9386V12.1213C64.4531 11.8232 63.2947 11.4457 62.5454 12.32C62.4066 12.4525 61.8795 12.7572 60.8804 12.9161C60.2909 12.7506 58.8411 12.161 57.759 11.1278C59.3197 11.1278 62.9408 10.4323 64.9386 8.44518V5.86194C64.6266 5.39828 63.5443 4.49084 61.7129 4.57032C60.9847 4.53722 59.2573 4.68956 58.175 5.56388C57.204 6.39184 55.1368 8.00802 54.6374 7.84904C54.1171 7.12044 52.0359 5.0671 50.267 3.87484C49.816 3.51054 48.5397 2.22556 47.0413 0ZM82.8433 0C83.3636 2.98064 81.8029 7.65034 79.0975 11.4258L78.6812 12.32C78.5077 13.7441 78.0986 16.5923 77.8487 16.5923L77.4325 15.5987C77.0858 16.9897 76.059 19.871 74.7271 20.2684L74.6231 19.6723L72.1259 23.0504L71.9177 22.2556C71.7097 22.2556 71.0644 22.5734 70.1487 23.8452C69.0043 25.4348 68.1718 25.5342 66.4028 25.6336L65.4664 26.1304H64.9461V12.1213C65.4316 11.8232 66.59 11.4457 67.3393 12.32C67.4781 12.4525 68.0051 12.7572 69.0043 12.9161C69.5937 12.7506 71.0436 12.161 72.1259 11.1278C70.565 11.1278 66.9439 10.4323 64.9461 8.44518V5.86194C65.2581 5.39828 66.3404 4.49084 68.1718 4.57032C68.9 4.53722 70.6274 4.68956 71.7097 5.56388C72.6807 6.39184 74.7479 8.00802 75.2473 7.84904C75.7678 7.12044 77.8487 5.0671 79.6177 3.87484C80.0687 3.51054 81.345 2.22556 82.8433 0Z" fill="white"/>
</svg>
